<?xml version="1.0" encoding="utf-8" standalone="no"?>
<!DOCTYPE svg PUBLIC "-//W3C//DTD SVG 1.1//EN"
  "http://www.w3.org/Graphics/SVG/1.1/DTD/svg11.dtd">
<svg xmlns:xlink="http://www.w3.org/1999/xlink" width="576pt" height="288pt" viewBox="0 0 576 288" xmlns="http://www.w3.org/2000/svg" version="1.1">
 <metadata>
  <rdf:RDF xmlns:dc="http://purl.org/dc/elements/1.1/" xmlns:cc="http://creativecommons.org/ns#" xmlns:rdf="http://www.w3.org/1999/02/22-rdf-syntax-ns#">
   <cc:Work>
    <dc:type rdf:resource="http://purl.org/dc/dcmitype/StillImage"/>
    <dc:format>image/svg+xml</dc:format>
   </cc:Work>
  </rdf:RDF>
 </metadata>
 <defs>
  <style type="text/css">*{stroke-linejoin: round; stroke-linecap: butt}</style>
 </defs>
 <g id="figure_1">
  <g id="patch_1">
   <path d="M 0 288 
L 576 288 
L 576 0 
L 0 0 
z
" style="fill: #fcfcfb; stroke: #e1e0d9; stroke-width: 1.5; stroke-linejoin: miter"/>
  </g>
  <g id="axes_1">
   <g id="patch_2">
    <path d="M 51.84 253.44 
L 558.72 253.44 
L 558.72 63.36 
L 51.84 63.36 
z
" style="fill: #fcfcfb"/>
   </g>
   <g id="matplotlib.axis_1">
    <g id="xtick_1">
     <g id="line2d_1">
      <defs>
       <path id="m3ed8688978" d="M 0 0 
L 0 4 
" style="stroke: #c3c2b7; stroke-width: 0.8"/>
      </defs>
      <g>
       <use xlink:href="#m3ed8688978" x="88.908964" y="253.44" style="fill: #c3c2b7; stroke: #c3c2b7; stroke-width: 0.8"/>
      </g>
     </g>
     <g id="text_1">
      <!-- 2014 -->
      <g style="fill: #52514e" transform="translate(76.183964 271.037656) scale(0.1 -0.1)">
       <defs>
        <path id="DejaVuSans-15" d="M 1228 531 
L 3431 531 
L 3431 0 
L 469 0 
L 469 531 
Q 828 903 1448 1529 
Q 2069 2156 2228 2338 
Q 2531 2678 2651 2914 
Q 2772 3150 2772 3378 
Q 2772 3750 2511 3984 
Q 2250 4219 1831 4219 
Q 1534 4219 1204 4116 
Q 875 4013 500 3803 
L 500 4441 
Q 881 4594 1212 4672 
Q 1544 4750 1819 4750 
Q 2544 4750 2975 4387 
Q 3406 4025 3406 3419 
Q 3406 3131 3298 2873 
Q 3191 2616 2906 2266 
Q 2828 2175 2409 1742 
Q 1991 1309 1228 531 
z
" transform="scale(0.015625)"/>
        <path id="DejaVuSans-13" d="M 2034 4250 
Q 1547 4250 1301 3770 
Q 1056 3291 1056 2328 
Q 1056 1369 1301 889 
Q 1547 409 2034 409 
Q 2525 409 2770 889 
Q 3016 1369 3016 2328 
Q 3016 3291 2770 3770 
Q 2525 4250 2034 4250 
z
M 2034 4750 
Q 2819 4750 3233 4129 
Q 3647 3509 3647 2328 
Q 3647 1150 3233 529 
Q 2819 -91 2034 -91 
Q 1250 -91 836 529 
Q 422 1150 422 2328 
Q 422 3509 836 4129 
Q 1250 4750 2034 4750 
z
" transform="scale(0.015625)"/>
        <path id="DejaVuSans-14" d="M 794 531 
L 1825 531 
L 1825 4091 
L 703 3866 
L 703 4441 
L 1819 4666 
L 2450 4666 
L 2450 531 
L 3481 531 
L 3481 0 
L 794 0 
L 794 531 
z
" transform="scale(0.015625)"/>
        <path id="DejaVuSans-17" d="M 2419 4116 
L 825 1625 
L 2419 1625 
L 2419 4116 
z
M 2253 4666 
L 3047 4666 
L 3047 1625 
L 3713 1625 
L 3713 1100 
L 3047 1100 
L 3047 0 
L 2419 0 
L 2419 1100 
L 313 1100 
L 313 1709 
L 2253 4666 
z
" transform="scale(0.015625)"/>
       </defs>
       <use xlink:href="#DejaVuSans-15"/>
       <use xlink:href="#DejaVuSans-13" transform="translate(63.625 0)"/>
       <use xlink:href="#DejaVuSans-14" transform="translate(127.25 0)"/>
       <use xlink:href="#DejaVuSans-17" transform="translate(190.875 0)"/>
      </g>
     </g>
    </g>
    <g id="xtick_2">
     <g id="line2d_2">
      <g>
       <use xlink:href="#m3ed8688978" x="163.046892" y="253.44" style="fill: #c3c2b7; stroke: #c3c2b7; stroke-width: 0.8"/>
      </g>
     </g>
     <g id="text_2">
      <!-- 2016 -->
      <g style="fill: #52514e" transform="translate(150.321892 271.037656) scale(0.1 -0.1)">
       <defs>
        <path id="DejaVuSans-19" d="M 2113 2584 
Q 1688 2584 1439 2293 
Q 1191 2003 1191 1497 
Q 1191 994 1439 701 
Q 1688 409 2113 409 
Q 2538 409 2786 701 
Q 3034 994 3034 1497 
Q 3034 2003 2786 2293 
Q 2538 2584 2113 2584 
z
M 3366 4563 
L 3366 3988 
Q 3128 4100 2886 4159 
Q 2644 4219 2406 4219 
Q 1781 4219 1451 3797 
Q 1122 3375 1075 2522 
Q 1259 2794 1537 2939 
Q 1816 3084 2150 3084 
Q 2853 3084 3261 2657 
Q 3669 2231 3669 1497 
Q 3669 778 3244 343 
Q 2819 -91 2113 -91 
Q 1303 -91 875 529 
Q 447 1150 447 2328 
Q 447 3434 972 4092 
Q 1497 4750 2381 4750 
Q 2619 4750 2861 4703 
Q 3103 4656 3366 4563 
z
" transform="scale(0.015625)"/>
       </defs>
       <use xlink:href="#DejaVuSans-15"/>
       <use xlink:href="#DejaVuSans-13" transform="translate(63.625 0)"/>
       <use xlink:href="#DejaVuSans-14" transform="translate(127.25 0)"/>
       <use xlink:href="#DejaVuSans-19" transform="translate(190.875 0)"/>
      </g>
     </g>
    </g>
    <g id="xtick_3">
     <g id="line2d_3">
      <g>
       <use xlink:href="#m3ed8688978" x="237.286379" y="253.44" style="fill: #c3c2b7; stroke: #c3c2b7; stroke-width: 0.8"/>
      </g>
     </g>
     <g id="text_3">
      <!-- 2018 -->
      <g style="fill: #52514e" transform="translate(224.561379 271.037656) scale(0.1 -0.1)">
       <defs>
        <path id="DejaVuSans-1b" d="M 2034 2216 
Q 1584 2216 1326 1975 
Q 1069 1734 1069 1313 
Q 1069 891 1326 650 
Q 1584 409 2034 409 
Q 2484 409 2743 651 
Q 3003 894 3003 1313 
Q 3003 1734 2745 1975 
Q 2488 2216 2034 2216 
z
M 1403 2484 
Q 997 2584 770 2862 
Q 544 3141 544 3541 
Q 544 4100 942 4425 
Q 1341 4750 2034 4750 
Q 2731 4750 3128 4425 
Q 3525 4100 3525 3541 
Q 3525 3141 3298 2862 
Q 3072 2584 2669 2484 
Q 3125 2378 3379 2068 
Q 3634 1759 3634 1313 
Q 3634 634 3220 271 
Q 2806 -91 2034 -91 
Q 1263 -91 848 271 
Q 434 634 434 1313 
Q 434 1759 690 2068 
Q 947 2378 1403 2484 
z
M 1172 3481 
Q 1172 3119 1398 2916 
Q 1625 2713 2034 2713 
Q 2441 2713 2670 2916 
Q 2900 3119 2900 3481 
Q 2900 3844 2670 4047 
Q 2441 4250 2034 4250 
Q 1625 4250 1398 4047 
Q 1172 3844 1172 3481 
z
" transform="scale(0.015625)"/>
       </defs>
       <use xlink:href="#DejaVuSans-15"/>
       <use xlink:href="#DejaVuSans-13" transform="translate(63.625 0)"/>
       <use xlink:href="#DejaVuSans-14" transform="translate(127.25 0)"/>
       <use xlink:href="#DejaVuSans-1b" transform="translate(190.875 0)"/>
      </g>
     </g>
    </g>
    <g id="xtick_4">
     <g id="line2d_4">
      <g>
       <use xlink:href="#m3ed8688978" x="311.424308" y="253.44" style="fill: #c3c2b7; stroke: #c3c2b7; stroke-width: 0.8"/>
      </g>
     </g>
     <g id="text_4">
      <!-- 2020 -->
      <g style="fill: #52514e" transform="translate(298.699308 271.037656) scale(0.1 -0.1)">
       <use xlink:href="#DejaVuSans-15"/>
       <use xlink:href="#DejaVuSans-13" transform="translate(63.625 0)"/>
       <use xlink:href="#DejaVuSans-15" transform="translate(127.25 0)"/>
       <use xlink:href="#DejaVuSans-13" transform="translate(190.875 0)"/>
      </g>
     </g>
    </g>
    <g id="xtick_5">
     <g id="line2d_5">
      <g>
       <use xlink:href="#m3ed8688978" x="385.663795" y="253.44" style="fill: #c3c2b7; stroke: #c3c2b7; stroke-width: 0.8"/>
      </g>
     </g>
     <g id="text_5">
      <!-- 2022 -->
      <g style="fill: #52514e" transform="translate(372.938795 271.037656) scale(0.1 -0.1)">
       <use xlink:href="#DejaVuSans-15"/>
       <use xlink:href="#DejaVuSans-13" transform="translate(63.625 0)"/>
       <use xlink:href="#DejaVuSans-15" transform="translate(127.25 0)"/>
       <use xlink:href="#DejaVuSans-15" transform="translate(190.875 0)"/>
      </g>
     </g>
    </g>
    <g id="xtick_6">
     <g id="line2d_6">
      <g>
       <use xlink:href="#m3ed8688978" x="459.801723" y="253.44" style="fill: #c3c2b7; stroke: #c3c2b7; stroke-width: 0.8"/>
      </g>
     </g>
     <g id="text_6">
      <!-- 2024 -->
      <g style="fill: #52514e" transform="translate(447.076723 271.037656) scale(0.1 -0.1)">
       <use xlink:href="#DejaVuSans-15"/>
       <use xlink:href="#DejaVuSans-13" transform="translate(63.625 0)"/>
       <use xlink:href="#DejaVuSans-15" transform="translate(127.25 0)"/>
       <use xlink:href="#DejaVuSans-17" transform="translate(190.875 0)"/>
      </g>
     </g>
    </g>
    <g id="xtick_7">
     <g id="line2d_7">
      <g>
       <use xlink:href="#m3ed8688978" x="534.04121" y="253.44" style="fill: #c3c2b7; stroke: #c3c2b7; stroke-width: 0.8"/>
      </g>
     </g>
     <g id="text_7">
      <!-- 2026 -->
      <g style="fill: #52514e" transform="translate(521.31621 271.037656) scale(0.1 -0.1)">
       <use xlink:href="#DejaVuSans-15"/>
       <use xlink:href="#DejaVuSans-13" transform="translate(63.625 0)"/>
       <use xlink:href="#DejaVuSans-15" transform="translate(127.25 0)"/>
       <use xlink:href="#DejaVuSans-19" transform="translate(190.875 0)"/>
      </g>
     </g>
    </g>
   </g>
   <g id="matplotlib.axis_2">
    <g id="ytick_1">
     <g id="line2d_8">
      <path d="M 51.84 253.44 
L 558.72 253.44 
" clip-path="url(#p222e99cf9f)" style="fill: none; stroke: #e1e0d9; stroke-width: 0.75; stroke-linecap: square"/>
     </g>
     <g id="line2d_9"/>
     <g id="text_8">
      <!-- 0 -->
      <g style="fill: #52514e" transform="translate(39.4775 257.238828) scale(0.1 -0.1)">
       <use xlink:href="#DejaVuSans-13"/>
      </g>
     </g>
    </g>
    <g id="ytick_2">
     <g id="line2d_10">
      <path d="M 51.84 207.154286 
L 558.72 207.154286 
" clip-path="url(#p222e99cf9f)" style="fill: none; stroke: #e1e0d9; stroke-width: 0.75; stroke-linecap: square"/>
     </g>
     <g id="line2d_11"/>
     <g id="text_9">
      <!-- 15 -->
      <g style="fill: #52514e" transform="translate(33.115 210.953114) scale(0.1 -0.1)">
       <defs>
        <path id="DejaVuSans-18" d="M 691 4666 
L 3169 4666 
L 3169 4134 
L 1269 4134 
L 1269 2991 
Q 1406 3038 1543 3061 
Q 1681 3084 1819 3084 
Q 2600 3084 3056 2656 
Q 3513 2228 3513 1497 
Q 3513 744 3044 326 
Q 2575 -91 1722 -91 
Q 1428 -91 1123 -41 
Q 819 9 494 109 
L 494 744 
Q 775 591 1075 516 
Q 1375 441 1709 441 
Q 2250 441 2565 725 
Q 2881 1009 2881 1497 
Q 2881 1984 2565 2268 
Q 2250 2553 1709 2553 
Q 1456 2553 1204 2497 
Q 953 2441 691 2322 
L 691 4666 
z
" transform="scale(0.015625)"/>
       </defs>
       <use xlink:href="#DejaVuSans-14"/>
       <use xlink:href="#DejaVuSans-18" transform="translate(63.625 0)"/>
      </g>
     </g>
    </g>
    <g id="ytick_3">
     <g id="line2d_12">
      <path d="M 51.84 160.868571 
L 558.72 160.868571 
" clip-path="url(#p222e99cf9f)" style="fill: none; stroke: #e1e0d9; stroke-width: 0.75; stroke-linecap: square"/>
     </g>
     <g id="line2d_13"/>
     <g id="text_10">
      <!-- 30 -->
      <g style="fill: #52514e" transform="translate(33.115 164.6674) scale(0.1 -0.1)">
       <defs>
        <path id="DejaVuSans-16" d="M 2597 2516 
Q 3050 2419 3304 2112 
Q 3559 1806 3559 1356 
Q 3559 666 3084 287 
Q 2609 -91 1734 -91 
Q 1441 -91 1130 -33 
Q 819 25 488 141 
L 488 750 
Q 750 597 1062 519 
Q 1375 441 1716 441 
Q 2309 441 2620 675 
Q 2931 909 2931 1356 
Q 2931 1769 2642 2001 
Q 2353 2234 1838 2234 
L 1294 2234 
L 1294 2753 
L 1863 2753 
Q 2328 2753 2575 2939 
Q 2822 3125 2822 3475 
Q 2822 3834 2567 4026 
Q 2313 4219 1838 4219 
Q 1578 4219 1281 4162 
Q 984 4106 628 3988 
L 628 4550 
Q 988 4650 1302 4700 
Q 1616 4750 1894 4750 
Q 2613 4750 3031 4423 
Q 3450 4097 3450 3541 
Q 3450 3153 3228 2886 
Q 3006 2619 2597 2516 
z
" transform="scale(0.015625)"/>
       </defs>
       <use xlink:href="#DejaVuSans-16"/>
       <use xlink:href="#DejaVuSans-13" transform="translate(63.625 0)"/>
      </g>
     </g>
    </g>
    <g id="ytick_4">
     <g id="line2d_14">
      <path d="M 51.84 114.582857 
L 558.72 114.582857 
" clip-path="url(#p222e99cf9f)" style="fill: none; stroke: #e1e0d9; stroke-width: 0.75; stroke-linecap: square"/>
     </g>
     <g id="line2d_15"/>
     <g id="text_11">
      <!-- 45 -->
      <g style="fill: #52514e" transform="translate(33.115 118.381685) scale(0.1 -0.1)">
       <use xlink:href="#DejaVuSans-17"/>
       <use xlink:href="#DejaVuSans-18" transform="translate(63.625 0)"/>
      </g>
     </g>
    </g>
    <g id="ytick_5">
     <g id="line2d_16">
      <path d="M 51.84 68.297143 
L 558.72 68.297143 
" clip-path="url(#p222e99cf9f)" style="fill: none; stroke: #e1e0d9; stroke-width: 0.75; stroke-linecap: square"/>
     </g>
     <g id="line2d_17"/>
     <g id="text_12">
      <!-- 60 -->
      <g style="fill: #52514e" transform="translate(33.115 72.095971) scale(0.1 -0.1)">
       <use xlink:href="#DejaVuSans-19"/>
       <use xlink:href="#DejaVuSans-13" transform="translate(63.625 0)"/>
      </g>
     </g>
    </g>
   </g>
   <g id="line2d_18">
    <path d="M 51.84 253.44 
L 70.222144 253.44 
L 73.370467 252.411429 
L 79.565554 252.411429 
L 82.713877 253.44 
L 85.760641 253.44 
L 88.908964 252.411429 
L 92.057287 252.411429 
L 94.900934 251.382857 
L 98.049257 252.411429 
L 101.096021 252.411429 
L 104.244344 253.44 
L 125.977928 253.44 
L 135.118221 250.354286 
L 144.360072 253.44 
L 147.508395 253.44 
L 150.656718 250.354286 
L 156.851805 250.354286 
L 159.898569 252.411429 
L 163.046892 252.411429 
L 166.195215 251.382857 
L 169.140421 252.411429 
L 172.288744 248.297143 
L 175.335508 246.24 
L 178.483831 246.24 
L 181.530595 245.211429 
L 184.678918 241.097143 
L 187.827241 239.04 
L 190.874005 241.097143 
L 194.022328 247.268571 
L 197.069092 248.297143 
L 200.217415 239.04 
L 203.365738 238.011429 
L 206.209385 225.668571 
L 209.357708 218.468571 
L 212.404472 207.154286 
L 215.552795 190.697143 
L 218.599559 210.24 
L 221.747882 199.954286 
L 224.896205 227.725714 
L 227.942969 219.497143 
L 231.091292 236.982857 
L 234.138057 239.04 
L 237.286379 240.068571 
L 240.434702 243.154286 
L 243.278349 241.097143 
L 246.426672 244.182857 
L 249.473436 232.868571 
L 252.621759 219.497143 
L 255.668523 207.154286 
L 258.816846 192.754286 
L 265.011933 217.44 
L 268.160256 241.097143 
L 271.207021 239.04 
L 274.355344 238.011429 
L 277.503667 233.897143 
L 280.347313 222.582857 
L 283.495636 223.611429 
L 286.5424 222.582857 
L 289.690723 236.982857 
L 292.737487 213.325714 
L 295.88581 217.44 
L 299.034133 214.354286 
L 302.080898 231.84 
L 305.229221 233.897143 
L 308.275985 231.84 
L 311.424308 238.011429 
L 314.572631 238.011429 
L 317.517836 228.754286 
L 320.666159 219.497143 
L 323.712923 219.497143 
L 326.861246 226.697143 
L 329.90801 231.84 
L 333.056333 230.811429 
L 336.204656 235.954286 
L 339.251421 236.982857 
L 342.399744 225.668571 
L 345.446508 198.925714 
L 348.594831 191.725714 
L 351.743154 192.754286 
L 354.5868 208.182857 
L 357.735123 211.268571 
L 363.93021 203.04 
L 366.976975 212.297143 
L 370.125298 231.84 
L 373.273621 244.182857 
L 379.468708 235.954286 
L 382.515472 236.982857 
L 385.663795 239.04 
L 388.812118 238.011429 
L 391.655764 224.64 
L 394.804087 221.554286 
L 397.850852 224.64 
L 400.999175 239.04 
L 404.045939 222.582857 
L 407.194262 217.44 
L 410.342585 215.382857 
L 413.389349 224.64 
L 416.537672 219.497143 
L 419.584436 226.697143 
L 425.881082 247.268571 
L 428.724729 240.068571 
L 431.873051 242.125714 
L 434.919816 224.64 
L 438.068139 229.782857 
L 441.114903 226.697143 
L 444.263226 232.868571 
L 447.411549 226.697143 
L 450.458313 223.611429 
L 453.606636 223.611429 
L 456.6534 211.268571 
L 459.801723 203.04 
L 462.950046 211.268571 
L 465.895251 219.497143 
L 469.043574 231.84 
L 472.090339 223.611429 
L 475.238662 233.897143 
L 478.285426 236.982857 
L 481.433749 235.954286 
L 484.582072 213.325714 
L 487.628836 188.64 
L 490.777159 173.211429 
L 493.823923 161.897143 
L 496.972246 153.668571 
L 500.120569 158.811429 
L 502.964216 170.125714 
L 506.112539 185.554286 
L 509.159303 192.754286 
L 512.307626 170.125714 
L 515.35439 172.182857 
L 518.502713 166.011429 
L 521.651036 197.897143 
L 524.6978 191.725714 
L 527.846123 196.868571 
L 530.892887 192.754286 
L 534.04121 186.582857 
L 537.189533 152.64 
L 540.03318 147.497143 
L 543.181503 148.525714 
L 546.228267 195.84 
L 549.37659 184.525714 
L 552.423354 168.068571 
L 555.571677 146.468571 
L 558.72 72.411429 
L 558.72 72.411429 
" clip-path="url(#p222e99cf9f)" style="fill: none; stroke: #2a78d6; stroke-width: 2; stroke-linecap: square"/>
   </g>
   <g id="line2d_19">
    <path d="M 51.84 253.44 
L 70.222144 253.44 
L 73.370467 252.411429 
L 79.565554 252.411429 
L 82.713877 253.44 
L 85.760641 253.44 
L 88.908964 252.411429 
L 92.057287 252.411429 
L 94.900934 251.382857 
L 98.049257 252.411429 
L 101.096021 252.411429 
L 104.244344 253.44 
L 125.977928 253.44 
L 135.118221 250.354286 
L 144.360072 253.44 
L 147.508395 253.44 
L 150.656718 251.382857 
L 156.851805 251.382857 
L 159.898569 252.411429 
L 163.046892 252.411429 
L 166.195215 251.382857 
L 169.140421 252.411429 
L 172.288744 248.297143 
L 178.483831 248.297143 
L 181.530595 247.268571 
L 184.678918 243.154286 
L 187.827241 240.068571 
L 190.874005 242.125714 
L 194.022328 246.24 
L 197.069092 247.268571 
L 200.217415 240.068571 
L 203.365738 241.097143 
L 206.209385 230.811429 
L 209.357708 220.525714 
L 212.404472 213.325714 
L 215.552795 197.897143 
L 218.599559 214.354286 
L 221.747882 207.154286 
L 224.896205 231.84 
L 227.942969 227.725714 
L 231.091292 238.011429 
L 237.286379 244.182857 
L 240.434702 246.24 
L 243.278349 242.125714 
L 246.426672 245.211429 
L 249.473436 231.84 
L 252.621759 226.697143 
L 255.668523 211.268571 
L 258.816846 204.068571 
L 261.965169 210.24 
L 265.011933 225.668571 
L 268.160256 245.211429 
L 271.207021 241.097143 
L 274.355344 238.011429 
L 277.503667 232.868571 
L 280.347313 220.525714 
L 283.495636 221.554286 
L 286.5424 219.497143 
L 289.690723 239.04 
L 292.737487 213.325714 
L 295.88581 219.497143 
L 299.034133 217.44 
L 302.080898 235.954286 
L 305.229221 235.954286 
L 308.275985 231.84 
L 311.424308 238.011429 
L 314.572631 239.04 
L 317.517836 228.754286 
L 320.666159 223.611429 
L 323.712923 222.582857 
L 326.861246 231.84 
L 329.90801 234.925714 
L 333.056333 232.868571 
L 336.204656 235.954286 
L 339.251421 236.982857 
L 342.399744 230.811429 
L 345.446508 209.211429 
L 348.594831 203.04 
L 351.743154 203.04 
L 354.5868 215.382857 
L 357.735123 216.411429 
L 360.781887 211.268571 
L 363.93021 205.097143 
L 366.976975 215.382857 
L 370.125298 232.868571 
L 373.273621 248.297143 
L 379.468708 240.068571 
L 382.515472 240.068571 
L 385.663795 238.011429 
L 388.812118 236.982857 
L 391.655764 225.668571 
L 394.804087 223.611429 
L 397.850852 227.725714 
L 400.999175 240.068571 
L 404.045939 230.811429 
L 410.342585 222.582857 
L 413.389349 231.84 
L 416.537672 224.64 
L 419.584436 231.84 
L 422.732759 236.982857 
L 425.881082 249.325714 
L 428.724729 242.125714 
L 431.873051 244.182857 
L 434.919816 226.697143 
L 438.068139 231.84 
L 441.114903 231.84 
L 444.263226 239.04 
L 447.411549 234.925714 
L 450.458313 231.84 
L 453.606636 229.782857 
L 456.6534 226.697143 
L 459.801723 220.525714 
L 462.950046 226.697143 
L 465.895251 229.782857 
L 469.043574 236.982857 
L 472.090339 232.868571 
L 475.238662 236.982857 
L 478.285426 240.068571 
L 481.433749 235.954286 
L 484.582072 218.468571 
L 487.628836 195.84 
L 490.777159 189.668571 
L 493.823923 174.24 
L 496.972246 168.068571 
L 500.120569 170.125714 
L 502.964216 186.582857 
L 506.112539 203.04 
L 509.159303 207.154286 
L 512.307626 184.525714 
L 515.35439 184.525714 
L 518.502713 180.411429 
L 521.651036 209.211429 
L 524.6978 202.011429 
L 527.846123 203.04 
L 530.892887 195.84 
L 534.04121 189.668571 
L 537.189533 156.754286 
L 540.03318 151.611429 
L 543.181503 152.64 
L 546.228267 198.925714 
L 549.37659 192.754286 
L 552.423354 176.297143 
L 555.571677 156.754286 
L 558.72 80.64 
L 558.72 80.64 
" clip-path="url(#p222e99cf9f)" style="fill: none; stroke: #e0782c; stroke-width: 2; stroke-linecap: square"/>
   </g>
   <g id="patch_3">
    <path d="M 51.84 253.44 
L 558.72 253.44 
" style="fill: none; stroke: #c3c2b7; stroke-width: 0.8; stroke-linejoin: miter; stroke-linecap: square"/>
   </g>
   <g id="legend_1">
    <g id="line2d_20">
     <path d="M 59.94 75.148594 
L 68.94 75.148594 
L 77.94 75.148594 
" style="fill: none; stroke: #2a78d6; stroke-width: 2; stroke-linecap: square"/>
    </g>
    <g id="text_13">
     <!-- Opened (3-month avg) -->
     <g transform="translate(85.14 78.298594) scale(0.09 -0.09)">
      <defs>
       <path id="DejaVuSans-32" d="M 2522 4238 
Q 1834 4238 1429 3725 
Q 1025 3213 1025 2328 
Q 1025 1447 1429 934 
Q 1834 422 2522 422 
Q 3209 422 3611 934 
Q 4013 1447 4013 2328 
Q 4013 3213 3611 3725 
Q 3209 4238 2522 4238 
z
M 2522 4750 
Q 3503 4750 4090 4092 
Q 4678 3434 4678 2328 
Q 4678 1225 4090 567 
Q 3503 -91 2522 -91 
Q 1538 -91 948 565 
Q 359 1222 359 2328 
Q 359 3434 948 4092 
Q 1538 4750 2522 4750 
z
" transform="scale(0.015625)"/>
       <path id="DejaVuSans-53" d="M 1159 525 
L 1159 -1331 
L 581 -1331 
L 581 3500 
L 1159 3500 
L 1159 2969 
Q 1341 3281 1617 3432 
Q 1894 3584 2278 3584 
Q 2916 3584 3314 3078 
Q 3713 2572 3713 1747 
Q 3713 922 3314 415 
Q 2916 -91 2278 -91 
Q 1894 -91 1617 61 
Q 1341 213 1159 525 
z
M 3116 1747 
Q 3116 2381 2855 2742 
Q 2594 3103 2138 3103 
Q 1681 3103 1420 2742 
Q 1159 2381 1159 1747 
Q 1159 1113 1420 752 
Q 1681 391 2138 391 
Q 2594 391 2855 752 
Q 3116 1113 3116 1747 
z
" transform="scale(0.015625)"/>
       <path id="DejaVuSans-48" d="M 3597 1894 
L 3597 1613 
L 953 1613 
Q 991 1019 1311 708 
Q 1631 397 2203 397 
Q 2534 397 2845 478 
Q 3156 559 3463 722 
L 3463 178 
Q 3153 47 2828 -22 
Q 2503 -91 2169 -91 
Q 1331 -91 842 396 
Q 353 884 353 1716 
Q 353 2575 817 3079 
Q 1281 3584 2069 3584 
Q 2775 3584 3186 3129 
Q 3597 2675 3597 1894 
z
M 3022 2063 
Q 3016 2534 2758 2815 
Q 2500 3097 2075 3097 
Q 1594 3097 1305 2825 
Q 1016 2553 972 2059 
L 3022 2063 
z
" transform="scale(0.015625)"/>
       <path id="DejaVuSans-51" d="M 3513 2113 
L 3513 0 
L 2938 0 
L 2938 2094 
Q 2938 2591 2744 2837 
Q 2550 3084 2163 3084 
Q 1697 3084 1428 2787 
Q 1159 2491 1159 1978 
L 1159 0 
L 581 0 
L 581 3500 
L 1159 3500 
L 1159 2956 
Q 1366 3272 1645 3428 
Q 1925 3584 2291 3584 
Q 2894 3584 3203 3211 
Q 3513 2838 3513 2113 
z
" transform="scale(0.015625)"/>
       <path id="DejaVuSans-47" d="M 2906 2969 
L 2906 4863 
L 3481 4863 
L 3481 0 
L 2906 0 
L 2906 525 
Q 2725 213 2448 61 
Q 2172 -91 1784 -91 
Q 1150 -91 751 415 
Q 353 922 353 1747 
Q 353 2572 751 3078 
Q 1150 3584 1784 3584 
Q 2172 3584 2448 3432 
Q 2725 3281 2906 2969 
z
M 947 1747 
Q 947 1113 1208 752 
Q 1469 391 1925 391 
Q 2381 391 2643 752 
Q 2906 1113 2906 1747 
Q 2906 2381 2643 2742 
Q 2381 3103 1925 3103 
Q 1469 3103 1208 2742 
Q 947 2381 947 1747 
z
" transform="scale(0.015625)"/>
       <path id="DejaVuSans-3" transform="scale(0.015625)"/>
       <path id="DejaVuSans-b" d="M 1984 4856 
Q 1566 4138 1362 3434 
Q 1159 2731 1159 2009 
Q 1159 1288 1364 580 
Q 1569 -128 1984 -844 
L 1484 -844 
Q 1016 -109 783 600 
Q 550 1309 550 2009 
Q 550 2706 781 3412 
Q 1013 4119 1484 4856 
L 1984 4856 
z
" transform="scale(0.015625)"/>
       <path id="DejaVuSans-10" d="M 313 2009 
L 1997 2009 
L 1997 1497 
L 313 1497 
L 313 2009 
z
" transform="scale(0.015625)"/>
       <path id="DejaVuSans-50" d="M 3328 2828 
Q 3544 3216 3844 3400 
Q 4144 3584 4550 3584 
Q 5097 3584 5394 3201 
Q 5691 2819 5691 2113 
L 5691 0 
L 5113 0 
L 5113 2094 
Q 5113 2597 4934 2840 
Q 4756 3084 4391 3084 
Q 3944 3084 3684 2787 
Q 3425 2491 3425 1978 
L 3425 0 
L 2847 0 
L 2847 2094 
Q 2847 2600 2669 2842 
Q 2491 3084 2119 3084 
Q 1678 3084 1418 2786 
Q 1159 2488 1159 1978 
L 1159 0 
L 581 0 
L 581 3500 
L 1159 3500 
L 1159 2956 
Q 1356 3278 1631 3431 
Q 1906 3584 2284 3584 
Q 2666 3584 2933 3390 
Q 3200 3197 3328 2828 
z
" transform="scale(0.015625)"/>
       <path id="DejaVuSans-52" d="M 1959 3097 
Q 1497 3097 1228 2736 
Q 959 2375 959 1747 
Q 959 1119 1226 758 
Q 1494 397 1959 397 
Q 2419 397 2687 759 
Q 2956 1122 2956 1747 
Q 2956 2369 2687 2733 
Q 2419 3097 1959 3097 
z
M 1959 3584 
Q 2709 3584 3137 3096 
Q 3566 2609 3566 1747 
Q 3566 888 3137 398 
Q 2709 -91 1959 -91 
Q 1206 -91 779 398 
Q 353 888 353 1747 
Q 353 2609 779 3096 
Q 1206 3584 1959 3584 
z
" transform="scale(0.015625)"/>
       <path id="DejaVuSans-57" d="M 1172 4494 
L 1172 3500 
L 2356 3500 
L 2356 3053 
L 1172 3053 
L 1172 1153 
Q 1172 725 1289 603 
Q 1406 481 1766 481 
L 2356 481 
L 2356 0 
L 1766 0 
Q 1100 0 847 248 
Q 594 497 594 1153 
L 594 3053 
L 172 3053 
L 172 3500 
L 594 3500 
L 594 4494 
L 1172 4494 
z
" transform="scale(0.015625)"/>
       <path id="DejaVuSans-4b" d="M 3513 2113 
L 3513 0 
L 2938 0 
L 2938 2094 
Q 2938 2591 2744 2837 
Q 2550 3084 2163 3084 
Q 1697 3084 1428 2787 
Q 1159 2491 1159 1978 
L 1159 0 
L 581 0 
L 581 4863 
L 1159 4863 
L 1159 2956 
Q 1366 3272 1645 3428 
Q 1925 3584 2291 3584 
Q 2894 3584 3203 3211 
Q 3513 2838 3513 2113 
z
" transform="scale(0.015625)"/>
       <path id="DejaVuSans-44" d="M 2194 1759 
Q 1497 1759 1228 1600 
Q 959 1441 959 1056 
Q 959 750 1161 570 
Q 1363 391 1709 391 
Q 2188 391 2477 730 
Q 2766 1069 2766 1631 
L 2766 1759 
L 2194 1759 
z
M 3341 1997 
L 3341 0 
L 2766 0 
L 2766 531 
Q 2569 213 2275 61 
Q 1981 -91 1556 -91 
Q 1019 -91 701 211 
Q 384 513 384 1019 
Q 384 1609 779 1909 
Q 1175 2209 1959 2209 
L 2766 2209 
L 2766 2266 
Q 2766 2663 2505 2880 
Q 2244 3097 1772 3097 
Q 1472 3097 1187 3025 
Q 903 2953 641 2809 
L 641 3341 
Q 956 3463 1253 3523 
Q 1550 3584 1831 3584 
Q 2591 3584 2966 3190 
Q 3341 2797 3341 1997 
z
" transform="scale(0.015625)"/>
       <path id="DejaVuSans-59" d="M 191 3500 
L 800 3500 
L 1894 563 
L 2988 3500 
L 3597 3500 
L 2284 0 
L 1503 0 
L 191 3500 
z
" transform="scale(0.015625)"/>
       <path id="DejaVuSans-4a" d="M 2906 1791 
Q 2906 2416 2648 2759 
Q 2391 3103 1925 3103 
Q 1463 3103 1205 2759 
Q 947 2416 947 1791 
Q 947 1169 1205 825 
Q 1463 481 1925 481 
Q 2391 481 2648 825 
Q 2906 1169 2906 1791 
z
M 3481 434 
Q 3481 -459 3084 -895 
Q 2688 -1331 1869 -1331 
Q 1566 -1331 1297 -1286 
Q 1028 -1241 775 -1147 
L 775 -588 
Q 1028 -725 1275 -790 
Q 1522 -856 1778 -856 
Q 2344 -856 2625 -561 
Q 2906 -266 2906 331 
L 2906 616 
Q 2728 306 2450 153 
Q 2172 0 1784 0 
Q 1141 0 747 490 
Q 353 981 353 1791 
Q 353 2603 747 3093 
Q 1141 3584 1784 3584 
Q 2172 3584 2450 3431 
Q 2728 3278 2906 2969 
L 2906 3500 
L 3481 3500 
L 3481 434 
z
" transform="scale(0.015625)"/>
       <path id="DejaVuSans-c" d="M 513 4856 
L 1013 4856 
Q 1481 4119 1714 3412 
Q 1947 2706 1947 2009 
Q 1947 1309 1714 600 
Q 1481 -109 1013 -844 
L 513 -844 
Q 928 -128 1133 580 
Q 1338 1288 1338 2009 
Q 1338 2731 1133 3434 
Q 928 4138 513 4856 
z
" transform="scale(0.015625)"/>
      </defs>
      <use xlink:href="#DejaVuSans-32"/>
      <use xlink:href="#DejaVuSans-53" transform="translate(78.71875 0)"/>
      <use xlink:href="#DejaVuSans-48" transform="translate(142.203125 0)"/>
      <use xlink:href="#DejaVuSans-51" transform="translate(203.734375 0)"/>
      <use xlink:href="#DejaVuSans-48" transform="translate(267.109375 0)"/>
      <use xlink:href="#DejaVuSans-47" transform="translate(328.640625 0)"/>
      <use xlink:href="#DejaVuSans-3" transform="translate(392.125 0)"/>
      <use xlink:href="#DejaVuSans-b" transform="translate(423.90625 0)"/>
      <use xlink:href="#DejaVuSans-16" transform="translate(462.921875 0)"/>
      <use xlink:href="#DejaVuSans-10" transform="translate(526.546875 0)"/>
      <use xlink:href="#DejaVuSans-50" transform="translate(562.625 0)"/>
      <use xlink:href="#DejaVuSans-52" transform="translate(660.03125 0)"/>
      <use xlink:href="#DejaVuSans-51" transform="translate(721.21875 0)"/>
      <use xlink:href="#DejaVuSans-57" transform="translate(784.59375 0)"/>
      <use xlink:href="#DejaVuSans-4b" transform="translate(823.796875 0)"/>
      <use xlink:href="#DejaVuSans-3" transform="translate(887.171875 0)"/>
      <use xlink:href="#DejaVuSans-44" transform="translate(918.953125 0)"/>
      <use xlink:href="#DejaVuSans-59" transform="translate(980.234375 0)"/>
      <use xlink:href="#DejaVuSans-4a" transform="translate(1039.421875 0)"/>
      <use xlink:href="#DejaVuSans-c" transform="translate(1102.90625 0)"/>
     </g>
    </g>
    <g id="line2d_21">
     <path d="M 59.94 88.649297 
L 68.94 88.649297 
L 77.94 88.649297 
" style="fill: none; stroke: #e0782c; stroke-width: 2; stroke-linecap: square"/>
    </g>
    <g id="text_14">
     <!-- Merged (3-month avg) -->
     <g transform="translate(85.14 91.799297) scale(0.09 -0.09)">
      <defs>
       <path id="DejaVuSans-30" d="M 628 4666 
L 1569 4666 
L 2759 1491 
L 3956 4666 
L 4897 4666 
L 4897 0 
L 4281 0 
L 4281 4097 
L 3078 897 
L 2444 897 
L 1241 4097 
L 1241 0 
L 628 0 
L 628 4666 
z
" transform="scale(0.015625)"/>
       <path id="DejaVuSans-55" d="M 2631 2963 
Q 2534 3019 2420 3045 
Q 2306 3072 2169 3072 
Q 1681 3072 1420 2755 
Q 1159 2438 1159 1844 
L 1159 0 
L 581 0 
L 581 3500 
L 1159 3500 
L 1159 2956 
Q 1341 3275 1631 3429 
Q 1922 3584 2338 3584 
Q 2397 3584 2469 3576 
Q 2541 3569 2628 3553 
L 2631 2963 
z
" transform="scale(0.015625)"/>
      </defs>
      <use xlink:href="#DejaVuSans-30"/>
      <use xlink:href="#DejaVuSans-48" transform="translate(86.28125 0)"/>
      <use xlink:href="#DejaVuSans-55" transform="translate(147.8125 0)"/>
      <use xlink:href="#DejaVuSans-4a" transform="translate(187.171875 0)"/>
      <use xlink:href="#DejaVuSans-48" transform="translate(250.65625 0)"/>
      <use xlink:href="#DejaVuSans-47" transform="translate(312.1875 0)"/>
      <use xlink:href="#DejaVuSans-3" transform="translate(375.671875 0)"/>
      <use xlink:href="#DejaVuSans-b" transform="translate(407.453125 0)"/>
      <use xlink:href="#DejaVuSans-16" transform="translate(446.46875 0)"/>
      <use xlink:href="#DejaVuSans-10" transform="translate(510.09375 0)"/>
      <use xlink:href="#DejaVuSans-50" transform="translate(546.171875 0)"/>
      <use xlink:href="#DejaVuSans-52" transform="translate(643.578125 0)"/>
      <use xlink:href="#DejaVuSans-51" transform="translate(704.765625 0)"/>
      <use xlink:href="#DejaVuSans-57" transform="translate(768.140625 0)"/>
      <use xlink:href="#DejaVuSans-4b" transform="translate(807.34375 0)"/>
      <use xlink:href="#DejaVuSans-3" transform="translate(870.71875 0)"/>
      <use xlink:href="#DejaVuSans-44" transform="translate(902.5 0)"/>
      <use xlink:href="#DejaVuSans-59" transform="translate(963.78125 0)"/>
      <use xlink:href="#DejaVuSans-4a" transform="translate(1022.96875 0)"/>
      <use xlink:href="#DejaVuSans-c" transform="translate(1086.453125 0)"/>
     </g>
    </g>
   </g>
  </g>
  <g id="text_15">
   <!-- Pull requests -->
   <g style="fill: #0b0b0b" transform="translate(11.52 20.16) scale(0.14 -0.14)">
    <defs>
     <path id="DejaVuSans-Bold-33" d="M 588 4666 
L 2584 4666 
Q 3475 4666 3951 4270 
Q 4428 3875 4428 3144 
Q 4428 2409 3951 2014 
Q 3475 1619 2584 1619 
L 1791 1619 
L 1791 0 
L 588 0 
L 588 4666 
z
M 1791 3794 
L 1791 2491 
L 2456 2491 
Q 2806 2491 2997 2661 
Q 3188 2831 3188 3144 
Q 3188 3456 2997 3625 
Q 2806 3794 2456 3794 
L 1791 3794 
z
" transform="scale(0.015625)"/>
     <path id="DejaVuSans-Bold-58" d="M 500 1363 
L 500 3500 
L 1625 3500 
L 1625 3150 
Q 1625 2866 1622 2436 
Q 1619 2006 1619 1863 
Q 1619 1441 1641 1255 
Q 1663 1069 1716 984 
Q 1784 875 1895 815 
Q 2006 756 2150 756 
Q 2500 756 2700 1025 
Q 2900 1294 2900 1772 
L 2900 3500 
L 4019 3500 
L 4019 0 
L 2900 0 
L 2900 506 
Q 2647 200 2364 54 
Q 2081 -91 1741 -91 
Q 1134 -91 817 281 
Q 500 653 500 1363 
z
" transform="scale(0.015625)"/>
     <path id="DejaVuSans-Bold-4f" d="M 538 4863 
L 1656 4863 
L 1656 0 
L 538 0 
L 538 4863 
z
" transform="scale(0.015625)"/>
     <path id="DejaVuSans-Bold-3" transform="scale(0.015625)"/>
     <path id="DejaVuSans-Bold-55" d="M 3138 2547 
Q 2991 2616 2845 2648 
Q 2700 2681 2553 2681 
Q 2122 2681 1889 2404 
Q 1656 2128 1656 1613 
L 1656 0 
L 538 0 
L 538 3500 
L 1656 3500 
L 1656 2925 
Q 1872 3269 2151 3426 
Q 2431 3584 2822 3584 
Q 2878 3584 2943 3579 
Q 3009 3575 3134 3559 
L 3138 2547 
z
" transform="scale(0.015625)"/>
     <path id="DejaVuSans-Bold-48" d="M 4031 1759 
L 4031 1441 
L 1416 1441 
Q 1456 1047 1700 850 
Q 1944 653 2381 653 
Q 2734 653 3104 758 
Q 3475 863 3866 1075 
L 3866 213 
Q 3469 63 3072 -14 
Q 2675 -91 2278 -91 
Q 1328 -91 801 392 
Q 275 875 275 1747 
Q 275 2603 792 3093 
Q 1309 3584 2216 3584 
Q 3041 3584 3536 3087 
Q 4031 2591 4031 1759 
z
M 2881 2131 
Q 2881 2450 2695 2645 
Q 2509 2841 2209 2841 
Q 1884 2841 1681 2658 
Q 1478 2475 1428 2131 
L 2881 2131 
z
" transform="scale(0.015625)"/>
     <path id="DejaVuSans-Bold-54" d="M 2181 2772 
Q 1825 2772 1636 2509 
Q 1447 2247 1447 1747 
Q 1447 1247 1636 984 
Q 1825 722 2181 722 
Q 2541 722 2730 984 
Q 2919 1247 2919 1747 
Q 2919 2247 2730 2509 
Q 2541 2772 2181 2772 
z
M 2919 506 
Q 2688 197 2409 53 
Q 2131 -91 1766 -91 
Q 1119 -91 703 423 
Q 288 938 288 1747 
Q 288 2556 703 3067 
Q 1119 3578 1766 3578 
Q 2131 3578 2409 3434 
Q 2688 3291 2919 2981 
L 2919 3500 
L 4044 3500 
L 4044 -1331 
L 2919 -1331 
L 2919 506 
z
" transform="scale(0.015625)"/>
     <path id="DejaVuSans-Bold-56" d="M 3272 3391 
L 3272 2541 
Q 2913 2691 2578 2766 
Q 2244 2841 1947 2841 
Q 1628 2841 1473 2761 
Q 1319 2681 1319 2516 
Q 1319 2381 1436 2309 
Q 1553 2238 1856 2203 
L 2053 2175 
Q 2913 2066 3209 1816 
Q 3506 1566 3506 1031 
Q 3506 472 3093 190 
Q 2681 -91 1863 -91 
Q 1516 -91 1145 -36 
Q 775 19 384 128 
L 384 978 
Q 719 816 1070 734 
Q 1422 653 1784 653 
Q 2113 653 2278 743 
Q 2444 834 2444 1013 
Q 2444 1163 2330 1236 
Q 2216 1309 1875 1350 
L 1678 1375 
Q 931 1469 631 1722 
Q 331 1975 331 2491 
Q 331 3047 712 3315 
Q 1094 3584 1881 3584 
Q 2191 3584 2531 3537 
Q 2872 3491 3272 3391 
z
" transform="scale(0.015625)"/>
     <path id="DejaVuSans-Bold-57" d="M 1759 4494 
L 1759 3500 
L 2913 3500 
L 2913 2700 
L 1759 2700 
L 1759 1216 
Q 1759 972 1856 886 
Q 1953 800 2241 800 
L 2816 800 
L 2816 0 
L 1856 0 
Q 1194 0 917 276 
Q 641 553 641 1216 
L 641 2700 
L 84 2700 
L 84 3500 
L 641 3500 
L 641 4494 
L 1759 4494 
z
" transform="scale(0.015625)"/>
    </defs>
    <use xlink:href="#DejaVuSans-Bold-33"/>
    <use xlink:href="#DejaVuSans-Bold-58" transform="translate(73.296875 0)"/>
    <use xlink:href="#DejaVuSans-Bold-4f" transform="translate(144.484375 0)"/>
    <use xlink:href="#DejaVuSans-Bold-4f" transform="translate(178.765625 0)"/>
    <use xlink:href="#DejaVuSans-Bold-3" transform="translate(213.046875 0)"/>
    <use xlink:href="#DejaVuSans-Bold-55" transform="translate(247.859375 0)"/>
    <use xlink:href="#DejaVuSans-Bold-48" transform="translate(297.171875 0)"/>
    <use xlink:href="#DejaVuSans-Bold-54" transform="translate(365 0)"/>
    <use xlink:href="#DejaVuSans-Bold-58" transform="translate(436.578125 0)"/>
    <use xlink:href="#DejaVuSans-Bold-48" transform="translate(507.765625 0)"/>
    <use xlink:href="#DejaVuSans-Bold-56" transform="translate(575.59375 0)"/>
    <use xlink:href="#DejaVuSans-Bold-57" transform="translate(635.109375 0)"/>
    <use xlink:href="#DejaVuSans-Bold-56" transform="translate(682.90625 0)"/>
   </g>
  </g>
  <g id="text_16">
   <!-- Pull requests authored by Erik, by month opened and merged -->
   <g style="fill: #52514e" transform="translate(11.52 38.88) scale(0.095 -0.095)">
    <defs>
     <path id="DejaVuSans-33" d="M 1259 4147 
L 1259 2394 
L 2053 2394 
Q 2494 2394 2734 2622 
Q 2975 2850 2975 3272 
Q 2975 3691 2734 3919 
Q 2494 4147 2053 4147 
L 1259 4147 
z
M 628 4666 
L 2053 4666 
Q 2838 4666 3239 4311 
Q 3641 3956 3641 3272 
Q 3641 2581 3239 2228 
Q 2838 1875 2053 1875 
L 1259 1875 
L 1259 0 
L 628 0 
L 628 4666 
z
" transform="scale(0.015625)"/>
     <path id="DejaVuSans-58" d="M 544 1381 
L 544 3500 
L 1119 3500 
L 1119 1403 
Q 1119 906 1312 657 
Q 1506 409 1894 409 
Q 2359 409 2629 706 
Q 2900 1003 2900 1516 
L 2900 3500 
L 3475 3500 
L 3475 0 
L 2900 0 
L 2900 538 
Q 2691 219 2414 64 
Q 2138 -91 1772 -91 
Q 1169 -91 856 284 
Q 544 659 544 1381 
z
M 1991 3584 
L 1991 3584 
z
" transform="scale(0.015625)"/>
     <path id="DejaVuSans-4f" d="M 603 4863 
L 1178 4863 
L 1178 0 
L 603 0 
L 603 4863 
z
" transform="scale(0.015625)"/>
     <path id="DejaVuSans-54" d="M 947 1747 
Q 947 1113 1208 752 
Q 1469 391 1925 391 
Q 2381 391 2643 752 
Q 2906 1113 2906 1747 
Q 2906 2381 2643 2742 
Q 2381 3103 1925 3103 
Q 1469 3103 1208 2742 
Q 947 2381 947 1747 
z
M 2906 525 
Q 2725 213 2448 61 
Q 2172 -91 1784 -91 
Q 1150 -91 751 415 
Q 353 922 353 1747 
Q 353 2572 751 3078 
Q 1150 3584 1784 3584 
Q 2172 3584 2448 3432 
Q 2725 3281 2906 2969 
L 2906 3500 
L 3481 3500 
L 3481 -1331 
L 2906 -1331 
L 2906 525 
z
" transform="scale(0.015625)"/>
     <path id="DejaVuSans-56" d="M 2834 3397 
L 2834 2853 
Q 2591 2978 2328 3040 
Q 2066 3103 1784 3103 
Q 1356 3103 1142 2972 
Q 928 2841 928 2578 
Q 928 2378 1081 2264 
Q 1234 2150 1697 2047 
L 1894 2003 
Q 2506 1872 2764 1633 
Q 3022 1394 3022 966 
Q 3022 478 2636 193 
Q 2250 -91 1575 -91 
Q 1294 -91 989 -36 
Q 684 19 347 128 
L 347 722 
Q 666 556 975 473 
Q 1284 391 1588 391 
Q 1994 391 2212 530 
Q 2431 669 2431 922 
Q 2431 1156 2273 1281 
Q 2116 1406 1581 1522 
L 1381 1569 
Q 847 1681 609 1914 
Q 372 2147 372 2553 
Q 372 3047 722 3315 
Q 1072 3584 1716 3584 
Q 2034 3584 2315 3537 
Q 2597 3491 2834 3397 
z
" transform="scale(0.015625)"/>
     <path id="DejaVuSans-45" d="M 3116 1747 
Q 3116 2381 2855 2742 
Q 2594 3103 2138 3103 
Q 1681 3103 1420 2742 
Q 1159 2381 1159 1747 
Q 1159 1113 1420 752 
Q 1681 391 2138 391 
Q 2594 391 2855 752 
Q 3116 1113 3116 1747 
z
M 1159 2969 
Q 1341 3281 1617 3432 
Q 1894 3584 2278 3584 
Q 2916 3584 3314 3078 
Q 3713 2572 3713 1747 
Q 3713 922 3314 415 
Q 2916 -91 2278 -91 
Q 1894 -91 1617 61 
Q 1341 213 1159 525 
L 1159 0 
L 581 0 
L 581 4863 
L 1159 4863 
L 1159 2969 
z
" transform="scale(0.015625)"/>
     <path id="DejaVuSans-5c" d="M 2059 -325 
Q 1816 -950 1584 -1140 
Q 1353 -1331 966 -1331 
L 506 -1331 
L 506 -850 
L 844 -850 
Q 1081 -850 1212 -737 
Q 1344 -625 1503 -206 
L 1606 56 
L 191 3500 
L 800 3500 
L 1894 763 
L 2988 3500 
L 3597 3500 
L 2059 -325 
z
" transform="scale(0.015625)"/>
     <path id="DejaVuSans-28" d="M 628 4666 
L 3578 4666 
L 3578 4134 
L 1259 4134 
L 1259 2753 
L 3481 2753 
L 3481 2222 
L 1259 2222 
L 1259 531 
L 3634 531 
L 3634 0 
L 628 0 
L 628 4666 
z
" transform="scale(0.015625)"/>
     <path id="DejaVuSans-4c" d="M 603 3500 
L 1178 3500 
L 1178 0 
L 603 0 
L 603 3500 
z
M 603 4863 
L 1178 4863 
L 1178 4134 
L 603 4134 
L 603 4863 
z
" transform="scale(0.015625)"/>
     <path id="DejaVuSans-4e" d="M 581 4863 
L 1159 4863 
L 1159 1991 
L 2875 3500 
L 3609 3500 
L 1753 1863 
L 3688 0 
L 2938 0 
L 1159 1709 
L 1159 0 
L 581 0 
L 581 4863 
z
" transform="scale(0.015625)"/>
     <path id="DejaVuSans-f" d="M 750 794 
L 1409 794 
L 1409 256 
L 897 -744 
L 494 -744 
L 750 256 
L 750 794 
z
" transform="scale(0.015625)"/>
    </defs>
    <use xlink:href="#DejaVuSans-33"/>
    <use xlink:href="#DejaVuSans-58" transform="translate(58.546875 0)"/>
    <use xlink:href="#DejaVuSans-4f" transform="translate(121.921875 0)"/>
    <use xlink:href="#DejaVuSans-4f" transform="translate(149.703125 0)"/>
    <use xlink:href="#DejaVuSans-3" transform="translate(177.484375 0)"/>
    <use xlink:href="#DejaVuSans-55" transform="translate(209.265625 0)"/>
    <use xlink:href="#DejaVuSans-48" transform="translate(248.171875 0)"/>
    <use xlink:href="#DejaVuSans-54" transform="translate(309.703125 0)"/>
    <use xlink:href="#DejaVuSans-58" transform="translate(373.1875 0)"/>
    <use xlink:href="#DejaVuSans-48" transform="translate(436.5625 0)"/>
    <use xlink:href="#DejaVuSans-56" transform="translate(498.09375 0)"/>
    <use xlink:href="#DejaVuSans-57" transform="translate(550.1875 0)"/>
    <use xlink:href="#DejaVuSans-56" transform="translate(589.390625 0)"/>
    <use xlink:href="#DejaVuSans-3" transform="translate(641.484375 0)"/>
    <use xlink:href="#DejaVuSans-44" transform="translate(673.265625 0)"/>
    <use xlink:href="#DejaVuSans-58" transform="translate(734.546875 0)"/>
    <use xlink:href="#DejaVuSans-57" transform="translate(797.921875 0)"/>
    <use xlink:href="#DejaVuSans-4b" transform="translate(837.125 0)"/>
    <use xlink:href="#DejaVuSans-52" transform="translate(900.5 0)"/>
    <use xlink:href="#DejaVuSans-55" transform="translate(961.6875 0)"/>
    <use xlink:href="#DejaVuSans-48" transform="translate(1000.59375 0)"/>
    <use xlink:href="#DejaVuSans-47" transform="translate(1062.125 0)"/>
    <use xlink:href="#DejaVuSans-3" transform="translate(1125.609375 0)"/>
    <use xlink:href="#DejaVuSans-45" transform="translate(1157.390625 0)"/>
    <use xlink:href="#DejaVuSans-5c" transform="translate(1220.875 0)"/>
    <use xlink:href="#DejaVuSans-3" transform="translate(1280.0625 0)"/>
    <use xlink:href="#DejaVuSans-28" transform="translate(1311.84375 0)"/>
    <use xlink:href="#DejaVuSans-55" transform="translate(1375.03125 0)"/>
    <use xlink:href="#DejaVuSans-4c" transform="translate(1416.140625 0)"/>
    <use xlink:href="#DejaVuSans-4e" transform="translate(1443.921875 0)"/>
    <use xlink:href="#DejaVuSans-f" transform="translate(1501.828125 0)"/>
    <use xlink:href="#DejaVuSans-3" transform="translate(1533.609375 0)"/>
    <use xlink:href="#DejaVuSans-45" transform="translate(1565.390625 0)"/>
    <use xlink:href="#DejaVuSans-5c" transform="translate(1628.875 0)"/>
    <use xlink:href="#DejaVuSans-3" transform="translate(1688.0625 0)"/>
    <use xlink:href="#DejaVuSans-50" transform="translate(1719.84375 0)"/>
    <use xlink:href="#DejaVuSans-52" transform="translate(1817.25 0)"/>
    <use xlink:href="#DejaVuSans-51" transform="translate(1878.4375 0)"/>
    <use xlink:href="#DejaVuSans-57" transform="translate(1941.8125 0)"/>
    <use xlink:href="#DejaVuSans-4b" transform="translate(1981.015625 0)"/>
    <use xlink:href="#DejaVuSans-3" transform="translate(2044.390625 0)"/>
    <use xlink:href="#DejaVuSans-52" transform="translate(2076.171875 0)"/>
    <use xlink:href="#DejaVuSans-53" transform="translate(2137.359375 0)"/>
    <use xlink:href="#DejaVuSans-48" transform="translate(2200.84375 0)"/>
    <use xlink:href="#DejaVuSans-51" transform="translate(2262.375 0)"/>
    <use xlink:href="#DejaVuSans-48" transform="translate(2325.75 0)"/>
    <use xlink:href="#DejaVuSans-47" transform="translate(2387.28125 0)"/>
    <use xlink:href="#DejaVuSans-3" transform="translate(2450.765625 0)"/>
    <use xlink:href="#DejaVuSans-44" transform="translate(2482.546875 0)"/>
    <use xlink:href="#DejaVuSans-51" transform="translate(2543.828125 0)"/>
    <use xlink:href="#DejaVuSans-47" transform="translate(2607.203125 0)"/>
    <use xlink:href="#DejaVuSans-3" transform="translate(2670.6875 0)"/>
    <use xlink:href="#DejaVuSans-50" transform="translate(2702.46875 0)"/>
    <use xlink:href="#DejaVuSans-48" transform="translate(2799.875 0)"/>
    <use xlink:href="#DejaVuSans-55" transform="translate(2861.40625 0)"/>
    <use xlink:href="#DejaVuSans-4a" transform="translate(2900.765625 0)"/>
    <use xlink:href="#DejaVuSans-48" transform="translate(2964.25 0)"/>
    <use xlink:href="#DejaVuSans-47" transform="translate(3025.78125 0)"/>
   </g>
  </g>
 </g>
 <defs>
  <clipPath id="p222e99cf9f">
   <rect x="51.84" y="63.36" width="506.88" height="190.08"/>
  </clipPath>
 </defs>
</svg>
